<svg version="1.1" id="Layer_1" xmlns="http://www.w3.org/2000/svg" xmlns:xlink="http://www.w3.org/1999/xlink" x="0px" y="0px"
	 width="100%" viewBox="0 0 500 500" enable-background="new 0 0 500 500" xml:space="preserve">
<path fill="#FFFFFF" opacity="1.000000" stroke="none" 
	d="
M275.000000,501.000000 
	C183.333359,501.000000 92.166710,501.000000 1.000049,501.000000 
	C1.000033,334.333405 1.000033,167.666794 1.000016,1.000138 
	C167.666565,1.000092 334.333130,1.000092 500.999756,1.000046 
	C500.999847,167.666519 500.999847,334.333038 500.999939,500.999786 
	C425.833344,501.000000 350.666656,501.000000 275.000000,501.000000 
M264.098938,395.942871 
	C263.767853,394.187805 263.383453,392.440735 263.119263,390.675659 
	C262.792297,388.490753 262.565094,386.290955 262.294769,384.097595 
	C260.099396,384.669312 257.898468,385.221130 255.713089,385.828888 
	C255.254059,385.956573 254.558197,386.580170 254.466293,386.487061 
	C250.187347,382.150726 249.893600,388.611053 247.767075,389.015717 
	C246.787689,388.213409 245.993011,387.562408 245.229324,386.936798 
	C244.016388,389.531586 242.976654,391.755829 241.096191,394.182281 
	C239.953613,394.505859 238.811050,394.829407 236.995850,395.343445 
	C237.296860,392.445282 237.769958,390.334015 237.645950,388.258453 
	C237.557480,386.777557 237.055603,384.658112 236.028564,384.076385 
	C234.921738,383.449402 232.939957,384.112732 231.431427,384.537842 
	C230.409195,384.825958 228.955566,386.380951 228.698303,386.166412 
	C224.796280,382.911499 224.169449,387.431061 222.608627,388.494080 
	C221.103607,388.128204 219.890594,387.833313 218.677582,387.538391 
	C218.677582,390.707336 218.677582,393.876282 218.677582,397.045258 
	C219.340698,397.239563 220.003815,397.433868 220.666916,397.628204 
	C222.185242,394.797729 223.703552,391.967255 225.475510,388.663910 
	C225.920441,391.250824 226.247910,393.154755 226.575363,395.058655 
	C226.995758,395.131653 227.416168,395.204651 227.836563,395.277649 
	C229.598755,392.097565 231.360931,388.917450 233.123123,385.737335 
	C233.520279,385.906464 233.917435,386.075623 234.314590,386.244751 
	C234.208130,388.518097 233.847931,390.818359 234.085205,393.055237 
	C234.240952,394.523438 234.914886,396.588135 235.988144,397.126160 
	C237.083847,397.675446 239.043137,396.899078 240.449310,396.295380 
	C241.420349,395.878510 242.093811,394.768524 243.676178,393.887115 
	C244.349167,395.025696 245.022141,396.164276 246.200195,398.157349 
	C248.034546,394.779419 249.417480,392.232758 251.233749,388.888153 
	C251.735977,391.630005 252.039352,393.286255 252.342743,394.942505 
	C252.695679,395.062744 253.048615,395.183014 253.401566,395.303253 
	C255.260986,392.089691 257.120422,388.876099 258.979858,385.662537 
	C259.899017,388.954559 259.702362,391.759644 259.998993,394.511505 
	C260.112427,395.563965 261.178833,396.820892 262.154633,397.345551 
	C262.653412,397.613739 263.911041,396.470551 265.140320,395.239655 
	C266.931335,394.478333 268.722382,393.717010 270.684326,392.883057 
	C271.942780,400.149780 279.268555,392.283966 281.714874,397.268951 
	C281.799042,397.440460 284.482300,396.336487 286.600281,395.582581 
	C287.197266,395.056274 287.794250,394.529999 288.443237,393.957825 
	C289.100189,395.380127 289.664154,396.601105 290.665588,398.769135 
	C293.025909,394.127930 294.947937,390.348572 296.869995,386.569214 
	C299.163544,399.546478 299.163544,399.546478 306.580780,394.291687 
	C310.182739,397.702606 310.182739,397.702606 313.976837,394.394928 
	C305.389893,395.219879 312.840576,386.792419 307.841858,384.949127 
	C305.378540,387.958710 307.157562,393.591736 301.374054,395.054657 
	C301.489563,392.537842 301.778931,390.435333 301.613129,388.369354 
	C301.502533,386.991394 301.052307,384.826569 300.202057,384.513580 
	C298.937653,384.048126 296.961029,384.542297 295.705994,385.311127 
	C294.541168,386.024780 293.924957,387.634033 293.134125,388.754059 
	C291.754578,386.963043 290.980927,385.958649 290.449188,385.268311 
	C288.753296,388.683319 287.302979,391.603882 284.970856,394.848267 
	C282.031830,395.566681 282.100403,393.599701 282.109772,391.660645 
	C282.122192,389.086090 282.112854,386.511505 282.112854,383.936920 
	C281.618134,383.780060 281.123413,383.623199 280.628693,383.466339 
	C278.983185,387.122375 277.337646,390.778412 275.692139,394.434448 
	C275.146088,394.285614 274.600037,394.136780 274.053955,393.987976 
	C273.622040,391.063141 273.190094,388.138306 272.758179,385.213470 
	C271.162018,386.426361 270.566956,387.811768 270.161774,389.250641 
	C269.321594,392.234650 268.556030,395.226654 264.098938,395.942871 
M211.032166,396.447540 
	C212.637115,395.449524 214.242081,394.451538 215.336761,393.770813 
	C214.849762,392.508392 214.549713,391.466858 214.061661,390.522491 
	C213.160889,388.779419 212.241531,385.749664 211.164764,385.676208 
	C209.202820,385.542328 206.878937,386.863007 205.170929,388.179871 
	C203.988556,389.091492 203.603806,391.024200 202.832581,392.484741 
	C197.076279,403.385895 189.285919,412.163940 177.583939,416.964081 
	C166.296722,421.594055 157.137283,416.735748 156.012939,404.576477 
	C153.966553,382.445587 161.330719,363.350769 176.538483,347.321686 
	C178.875580,344.858398 182.049240,342.984955 185.151733,341.497101 
	C190.439346,338.961395 193.624619,341.131775 192.419495,346.849457 
	C191.095963,353.128815 188.560913,359.154266 186.527039,365.281494 
	C186.006775,366.848846 185.385620,368.382721 184.409729,371.013031 
	C186.399124,370.119751 187.574615,369.961090 187.745163,369.460236 
	C190.505371,361.354736 193.683350,353.329956 195.576477,345.015900 
	C196.568634,340.658569 192.770142,337.435333 188.309769,338.688568 
	C183.351089,340.081879 177.885834,342.073120 174.295975,345.525024 
	C158.028641,361.167328 150.802475,380.804199 152.227493,403.206512 
	C153.048996,416.120819 161.765060,422.402344 174.101044,420.256348 
	C182.486465,418.797577 189.235855,414.245087 194.741867,408.010406 
	C198.091125,404.217926 200.778961,399.841339 202.855957,396.978546 
	C205.903214,396.786438 208.025497,396.652649 210.164459,396.415527 
	C210.164459,396.415527 210.263718,396.448608 211.032166,396.447540 
M254.427521,300.916626 
	C252.097488,302.800507 249.807709,304.736908 247.430649,306.559448 
	C234.975967,316.108826 220.293121,321.264343 206.123138,327.424438 
	C203.463486,328.580688 200.368378,329.663177 201.422852,333.301086 
	C202.479630,336.946960 205.588562,336.427216 208.491196,335.658386 
	C208.925552,335.543335 209.416611,335.642303 209.841690,335.642303 
	C212.512360,340.461761 217.453049,342.536011 222.585556,341.744781 
	C224.486023,341.451843 226.753815,342.286133 228.598328,343.151489 
	C232.240112,344.859955 235.647476,347.066803 239.282837,348.791229 
	C240.117615,349.187225 241.572815,348.668060 242.584595,348.216400 
	C244.690308,347.276459 246.690414,346.099915 249.145752,344.803070 
	C252.112152,349.823303 255.281143,348.256836 258.575897,344.804657 
	C261.444153,341.799347 264.298859,338.720215 267.526947,336.131927 
	C274.118896,330.846375 281.633453,326.537781 287.519867,320.591217 
	C294.472198,313.567902 301.230774,305.874207 306.054688,297.331268 
	C313.899902,283.437927 310.567535,269.655762 298.584045,259.149048 
	C289.542175,251.221466 279.087494,246.048615 267.437286,242.957733 
	C253.958313,239.381638 240.630173,235.240326 227.196426,231.488022 
	C223.795715,230.538132 222.690277,228.408020 222.879456,225.220657 
	C223.346481,217.351944 226.215393,210.505737 232.767517,205.964798 
	C238.907486,201.709518 245.285126,197.643112 251.996094,194.399734 
	C263.888458,188.652252 276.112610,183.591339 289.444244,177.691605 
	C288.726318,181.282593 288.189178,183.156006 287.999878,185.063934 
	C287.346558,191.648224 286.484924,198.243286 286.459747,204.837143 
	C286.453186,206.564072 288.991882,209.525208 290.700409,209.798050 
	C295.299896,210.532532 300.083130,210.191559 304.791595,210.131912 
	C306.714142,210.107574 308.811920,209.097534 310.516235,209.600037 
	C314.681335,210.828049 316.269073,209.253510 317.089417,205.360260 
	C319.931274,191.872910 323.117462,178.455414 325.728760,164.925659 
	C326.054657,163.237228 324.128815,159.870453 322.536621,159.314743 
	C319.233246,158.161789 314.702118,156.948456 312.039429,158.350266 
	C307.702728,160.633423 304.493164,161.428604 302.065430,156.972794 
	C299.667084,152.570984 296.243988,152.397369 292.354462,153.261780 
	C287.490906,154.342682 282.681152,155.704880 277.906250,157.139069 
	C250.353226,165.414764 225.386597,178.079666 205.817307,199.846313 
	C199.093521,207.325119 192.773834,215.093964 190.483749,225.195160 
	C188.191940,235.304031 190.250229,244.620544 199.112152,250.433380 
	C207.223419,255.753830 216.204025,259.875275 225.116486,263.812195 
	C233.916428,267.699402 243.447861,270.013794 252.036667,274.272156 
	C260.461945,278.449493 266.455688,287.290131 257.811310,296.961121 
	C256.813232,298.077698 255.892258,299.263153 254.427521,300.916626 
M339.705750,427.065582 
	C340.859558,420.288147 341.977509,413.504333 343.181305,406.735809 
	C343.843506,403.012360 344.650177,399.314606 345.331024,395.908661 
	C345.400024,395.915161 344.334259,395.814362 342.949768,395.683411 
	C342.949768,391.964630 342.949768,388.582520 342.949768,384.538391 
	C338.044800,386.874420 341.565186,394.579651 334.622620,395.147583 
	C334.388184,392.172089 334.165741,389.348907 333.941833,386.507172 
	C330.857025,387.271851 328.484131,390.357697 329.128418,392.521851 
	C330.220703,396.190948 334.868347,397.790558 341.240448,395.658630 
	C339.529999,398.679077 338.610291,400.819946 337.243591,402.621704 
	C332.788422,408.494995 328.349762,414.364410 328.938354,422.295898 
	C329.410461,428.657318 333.717712,430.809784 339.705750,427.065582 
M313.346588,376.782654 
	C312.572998,376.936249 311.799408,377.089874 309.638275,377.519012 
	C312.583160,378.027405 314.138397,378.295898 316.341919,378.676300 
	C316.010956,383.028198 315.211395,387.302429 315.550873,391.484192 
	C315.745789,393.885254 317.345490,396.639221 319.177643,398.251587 
	C320.154083,399.110931 322.970154,397.879822 324.955902,397.592255 
	C325.105133,396.984650 325.254364,396.377014 325.403625,395.769409 
	C318.857117,398.428314 318.856262,394.680206 319.015717,390.705719 
	C319.135956,387.709137 318.817047,384.638123 319.399323,381.742126 
	C319.669678,380.397430 321.494202,378.596252 322.829803,378.388458 
	C325.999878,377.895325 329.298706,378.229767 332.545502,378.229767 
	C332.558868,377.781525 332.572266,377.333252 332.585663,376.885010 
	C328.420563,376.885010 324.255493,376.885010 319.975800,376.885010 
	C319.561951,373.957794 319.238495,371.669708 318.915009,369.381592 
	C318.463226,369.375916 318.011444,369.370209 317.559662,369.364532 
	C317.295502,370.695557 317.256592,372.130157 316.705444,373.329285 
	C316.122864,374.596924 315.052338,375.640289 313.346588,376.782654 
z"/>
<path fill="#FF5858" opacity="1.000000" stroke="none" 
	d="
M254.681534,300.666626 
	C255.892258,299.263153 256.813232,298.077698 257.811310,296.961121 
	C266.455688,287.290131 260.461945,278.449493 252.036667,274.272156 
	C243.447861,270.013794 233.916428,267.699402 225.116486,263.812195 
	C216.204025,259.875275 207.223419,255.753830 199.112152,250.433380 
	C190.250229,244.620544 188.191940,235.304031 190.483749,225.195160 
	C192.773834,215.093964 199.093521,207.325119 205.817307,199.846313 
	C225.386597,178.079666 250.353226,165.414764 277.906250,157.139069 
	C282.681152,155.704880 287.490906,154.342682 292.354462,153.261780 
	C296.243988,152.397369 299.667084,152.570984 302.065430,156.972794 
	C304.493164,161.428604 307.702728,160.633423 312.039429,158.350266 
	C314.702118,156.948456 319.233246,158.161789 322.536621,159.314743 
	C324.128815,159.870453 326.054657,163.237228 325.728760,164.925659 
	C323.117462,178.455414 319.931274,191.872910 317.089417,205.360260 
	C316.269073,209.253510 314.681335,210.828049 310.516235,209.600037 
	C308.811920,209.097534 306.714142,210.107574 304.791595,210.131912 
	C300.083130,210.191559 295.299896,210.532532 290.700409,209.798050 
	C288.991882,209.525208 286.453186,206.564072 286.459747,204.837143 
	C286.484924,198.243286 287.346558,191.648224 287.999878,185.063934 
	C288.189178,183.156006 288.726318,181.282593 289.444244,177.691605 
	C276.112610,183.591339 263.888458,188.652252 251.996094,194.399734 
	C245.285126,197.643112 238.907486,201.709518 232.767517,205.964798 
	C226.215393,210.505737 223.346481,217.351944 222.879456,225.220657 
	C222.690277,228.408020 223.795715,230.538132 227.196426,231.488022 
	C240.630173,235.240326 253.958313,239.381638 267.437286,242.957733 
	C279.087494,246.048615 289.542175,251.221466 298.584045,259.149048 
	C310.567535,269.655762 313.899902,283.437927 306.054688,297.331268 
	C301.230774,305.874207 294.472198,313.567902 287.519867,320.591217 
	C281.633453,326.537781 274.118896,330.846375 267.526947,336.131927 
	C264.298859,338.720215 261.444153,341.799347 258.575897,344.804657 
	C255.281143,348.256836 252.112152,349.823303 249.145752,344.803070 
	C246.690414,346.099915 244.690308,347.276459 242.584595,348.216400 
	C241.572815,348.668060 240.117615,349.187225 239.282837,348.791229 
	C235.647476,347.066803 232.240112,344.859955 228.598328,343.151489 
	C226.753815,342.286133 224.486023,341.451843 222.585556,341.744781 
	C217.453049,342.536011 212.512360,340.461761 209.841690,335.642303 
	C209.416611,335.642303 208.925552,335.543335 208.491196,335.658386 
	C205.588562,336.427216 202.479630,336.946960 201.422852,333.301086 
	C200.368378,329.663177 203.463486,328.580688 206.123138,327.424438 
	C220.293121,321.264343 234.975967,316.108826 247.430649,306.559448 
	C249.807709,304.736908 252.097488,302.800507 254.681534,300.666626 
z"/>
<path fill="#161616" opacity="1.000000" stroke="none" 
	d="
M210.147781,396.518829 
	C208.025497,396.652649 205.903214,396.786438 202.855957,396.978546 
	C200.778961,399.841339 198.091125,404.217926 194.741867,408.010406 
	C189.235855,414.245087 182.486465,418.797577 174.101044,420.256348 
	C161.765060,422.402344 153.048996,416.120819 152.227493,403.206512 
	C150.802475,380.804199 158.028641,361.167328 174.295975,345.525024 
	C177.885834,342.073120 183.351089,340.081879 188.309769,338.688568 
	C192.770142,337.435333 196.568634,340.658569 195.576477,345.015900 
	C193.683350,353.329956 190.505371,361.354736 187.745163,369.460236 
	C187.574615,369.961090 186.399124,370.119751 184.409729,371.013031 
	C185.385620,368.382721 186.006775,366.848846 186.527039,365.281494 
	C188.560913,359.154266 191.095963,353.128815 192.419495,346.849457 
	C193.624619,341.131775 190.439346,338.961395 185.151733,341.497101 
	C182.049240,342.984955 178.875580,344.858398 176.538483,347.321686 
	C161.330719,363.350769 153.966553,382.445587 156.012939,404.576477 
	C157.137283,416.735748 166.296722,421.594055 177.583939,416.964081 
	C189.285919,412.163940 197.076279,403.385895 202.832581,392.484741 
	C203.603806,391.024200 203.988556,389.091492 205.170929,388.179871 
	C206.878937,386.863007 209.202820,385.542328 211.164764,385.676208 
	C212.241531,385.749664 213.160889,388.779419 214.061661,390.522491 
	C214.549713,391.466858 214.849762,392.508392 215.336761,393.770813 
	C214.242081,394.451538 212.637115,395.449524 210.564911,396.051086 
	C209.227524,393.823059 208.357376,391.991455 207.487213,390.159851 
	C207.004745,390.497925 206.522278,390.835999 206.039810,391.174072 
	C207.409134,392.955658 208.778458,394.737244 210.147781,396.518829 
M210.216690,389.615448 
	C210.220154,389.219299 210.227615,388.822968 210.206299,388.428162 
	C210.205704,388.417114 209.897049,388.422668 209.732056,388.420471 
	C209.727051,388.817047 209.722046,389.213654 210.216690,389.615448 
z"/>
<path fill="#111111" opacity="1.000000" stroke="none" 
	d="
M339.463257,427.334045 
	C333.717712,430.809784 329.410461,428.657318 328.938354,422.295898 
	C328.349762,414.364410 332.788422,408.494995 337.243591,402.621704 
	C338.610291,400.819946 339.529999,398.679077 341.240448,395.658630 
	C334.868347,397.790558 330.220703,396.190948 329.128418,392.521851 
	C328.484131,390.357697 330.857025,387.271851 333.941833,386.507172 
	C334.165741,389.348907 334.388184,392.172089 334.622620,395.147583 
	C341.565186,394.579651 338.044800,386.874420 342.949768,384.538391 
	C342.949768,388.582520 342.949768,391.964630 342.949768,395.683411 
	C344.334259,395.814362 345.400024,395.915161 345.331024,395.908661 
	C344.650177,399.314606 343.843506,403.012360 343.181305,406.735809 
	C341.977509,413.504333 340.859558,420.288147 339.463257,427.334045 
M333.839264,413.549683 
	C330.869629,422.011017 331.203796,424.745697 336.804291,428.008911 
	C337.879761,420.223877 338.878387,412.995331 339.876984,405.766815 
	C339.369843,405.614594 338.862701,405.462372 338.355560,405.310181 
	C336.930420,407.809784 335.505280,410.309418 333.839264,413.549683 
z"/>
<path fill="#1C1C1C" opacity="1.000000" stroke="none" 
	d="
M285.852661,394.524475 
	C287.302979,391.603882 288.753296,388.683319 290.449188,385.268311 
	C290.980927,385.958649 291.754578,386.963043 293.134125,388.754059 
	C293.924957,387.634033 294.541168,386.024780 295.705994,385.311127 
	C296.961029,384.542297 298.937653,384.048126 300.202057,384.513580 
	C301.052307,384.826569 301.502533,386.991394 301.613129,388.369354 
	C301.778931,390.435333 301.489563,392.537842 301.374054,395.054657 
	C307.157562,393.591736 305.378540,387.958710 307.841858,384.949127 
	C312.840576,386.792419 305.389893,395.219879 313.976837,394.394928 
	C310.182739,397.702606 310.182739,397.702606 306.580780,394.291687 
	C299.163544,399.546478 299.163544,399.546478 296.869995,386.569214 
	C294.947937,390.348572 293.025909,394.127930 290.665588,398.769135 
	C289.664154,396.601105 289.100189,395.380127 288.443237,393.957825 
	C287.794250,394.529999 287.197266,395.056274 286.251953,395.379150 
	C285.886597,394.958649 285.869629,394.741547 285.852661,394.524475 
z"/>
<path fill="#1C1C1C" opacity="1.000000" stroke="none" 
	d="
M242.900269,393.968292 
	C242.093811,394.768524 241.420349,395.878510 240.449310,396.295380 
	C239.043137,396.899078 237.083847,397.675446 235.988144,397.126160 
	C234.914886,396.588135 234.240952,394.523438 234.085205,393.055237 
	C233.847931,390.818359 234.208130,388.518097 234.314590,386.244751 
	C233.917435,386.075623 233.520279,385.906464 233.123123,385.737335 
	C231.360931,388.917450 229.598755,392.097565 227.836563,395.277649 
	C227.416168,395.204651 226.995758,395.131653 226.575363,395.058655 
	C226.247910,393.154755 225.920441,391.250824 225.475510,388.663910 
	C223.703552,391.967255 222.185242,394.797729 220.666916,397.628204 
	C220.003815,397.433868 219.340698,397.239563 218.677582,397.045258 
	C218.677582,393.876282 218.677582,390.707336 218.677582,387.538391 
	C219.890594,387.833313 221.103607,388.128204 222.608627,388.494080 
	C224.169449,387.431061 224.796280,382.911499 228.698303,386.166412 
	C228.955566,386.380951 230.409195,384.825958 231.431427,384.537842 
	C232.939957,384.112732 234.921738,383.449402 236.028564,384.076385 
	C237.055603,384.658112 237.557480,386.777557 237.645950,388.258453 
	C237.769958,390.334015 237.296860,392.445282 236.995850,395.343445 
	C238.811050,394.829407 239.953613,394.505859 241.757324,394.073364 
	C242.418472,393.964478 242.900253,393.968292 242.900269,393.968292 
z"/>
<path fill="#161616" opacity="1.000000" stroke="none" 
	d="
M243.288208,393.927704 
	C242.900253,393.968292 242.418472,393.964478 242.177704,393.972290 
	C242.976654,391.755829 244.016388,389.531586 245.229324,386.936798 
	C245.993011,387.562408 246.787689,388.213409 247.767075,389.015717 
	C249.893600,388.611053 250.187347,382.150726 254.466293,386.487061 
	C254.558197,386.580170 255.254059,385.956573 255.713089,385.828888 
	C257.898468,385.221130 260.099396,384.669312 262.294769,384.097595 
	C262.565094,386.290955 262.792297,388.490753 263.119263,390.675659 
	C263.383453,392.440735 263.767853,394.187805 264.489777,395.952271 
	C264.880615,395.961700 264.825684,395.965302 264.825684,395.965302 
	C263.911041,396.470551 262.653412,397.613739 262.154633,397.345551 
	C261.178833,396.820892 260.112427,395.563965 259.998993,394.511505 
	C259.702362,391.759644 259.899017,388.954559 258.979858,385.662537 
	C257.120422,388.876099 255.260986,392.089691 253.401566,395.303253 
	C253.048615,395.183014 252.695679,395.062744 252.342743,394.942505 
	C252.039352,393.286255 251.735977,391.630005 251.233749,388.888153 
	C249.417480,392.232758 248.034546,394.779419 246.200195,398.157349 
	C245.022141,396.164276 244.349167,395.025696 243.288208,393.927704 
z"/>
<path fill="#111111" opacity="1.000000" stroke="none" 
	d="
M313.770782,376.782166 
	C315.052338,375.640289 316.122864,374.596924 316.705444,373.329285 
	C317.256592,372.130157 317.295502,370.695557 317.559662,369.364532 
	C318.011444,369.370209 318.463226,369.375916 318.915009,369.381592 
	C319.238495,371.669708 319.561951,373.957794 319.975800,376.885010 
	C324.255493,376.885010 328.420563,376.885010 332.585663,376.885010 
	C332.572266,377.333252 332.558868,377.781525 332.545502,378.229767 
	C329.298706,378.229767 325.999878,377.895325 322.829803,378.388458 
	C321.494202,378.596252 319.669678,380.397430 319.399323,381.742126 
	C318.817047,384.638123 319.135956,387.709137 319.015717,390.705719 
	C318.856262,394.680206 318.857117,398.428314 325.403625,395.769409 
	C325.254364,396.377014 325.105133,396.984650 324.955902,397.592255 
	C322.970154,397.879822 320.154083,399.110931 319.177643,398.251587 
	C317.345490,396.639221 315.745789,393.885254 315.550873,391.484192 
	C315.211395,387.302429 316.010956,383.028198 316.341919,378.676300 
	C314.138397,378.295898 312.583160,378.027405 309.638275,377.519012 
	C311.799408,377.089874 312.572998,376.936249 313.770782,376.782166 
z"/>
<path fill="#161616" opacity="1.000000" stroke="none" 
	d="
M285.411743,394.686371 
	C285.869629,394.741547 285.886597,394.958649 285.928864,395.501373 
	C284.482300,396.336487 281.799042,397.440460 281.714874,397.268951 
	C279.268555,392.283966 271.942780,400.149780 270.684326,392.883057 
	C268.722382,393.717010 266.931335,394.478333 264.983002,395.602478 
	C264.825684,395.965302 264.880615,395.961700 264.891724,395.979797 
	C268.556030,395.226654 269.321594,392.234650 270.161774,389.250641 
	C270.566956,387.811768 271.162018,386.426361 272.758179,385.213470 
	C273.190094,388.138306 273.622040,391.063141 274.053955,393.987976 
	C274.600037,394.136780 275.146088,394.285614 275.692139,394.434448 
	C277.337646,390.778412 278.983185,387.122375 280.628693,383.466339 
	C281.123413,383.623199 281.618134,383.780060 282.112854,383.936920 
	C282.112854,386.511505 282.122192,389.086090 282.109772,391.660645 
	C282.100403,393.599701 282.031830,395.566681 285.411743,394.686371 
z"/>
<path fill="#1C1C1C" opacity="1.000000" stroke="none" 
	d="
M210.156128,396.467163 
	C208.778458,394.737244 207.409134,392.955658 206.039810,391.174072 
	C206.522278,390.835999 207.004745,390.497925 207.487213,390.159851 
	C208.357376,391.991455 209.227524,393.823059 210.180695,396.051636 
	C210.263718,396.448608 210.164459,396.415527 210.156128,396.467163 
z"/>
<path fill="#1C1C1C" opacity="1.000000" stroke="none" 
	d="
M209.966873,389.612854 
	C209.722046,389.213654 209.727051,388.817047 209.732056,388.420471 
	C209.897049,388.422668 210.205704,388.417114 210.206299,388.428162 
	C210.227615,388.822968 210.220154,389.219299 209.966873,389.612854 
z"/>
<path fill="#F0F0F0" opacity="1.000000" stroke="none" 
	d="
M333.959717,413.179382 
	C335.505280,410.309418 336.930420,407.809784 338.355560,405.310181 
	C338.862701,405.462372 339.369843,405.614594 339.876984,405.766815 
	C338.878387,412.995331 337.879761,420.223877 336.804291,428.008911 
	C331.203796,424.745697 330.869629,422.011017 333.959717,413.179382 
z"/>
</svg>